<svg width="529" height="353" viewBox="0 0 529 353" fill="none" xmlns="http://www.w3.org/2000/svg">
<path fill-rule="evenodd" clip-rule="evenodd" d="M529 292C529 311.329 513.333 327 494 327C474.667 327 459 311.329 459 292C459 272.671 474.667 257 494 257C513.333 257 529 272.671 529 292Z" fill="#385461"/>
<path fill-rule="evenodd" clip-rule="evenodd" d="M505.445 283.718H483.125C483.013 283.718 482.929 283.739 482.845 283.783L480.678 277.132C480.612 276.934 480.444 276.788 480.238 276.755L475.651 276.008C475.343 275.956 475.053 276.165 475.007 276.469C474.96 276.78 475.165 277.063 475.464 277.114L479.725 277.806L487.18 300.693C487.255 300.923 487.47 301.077 487.713 301.077H489.217C488.609 301.451 488.208 302.122 488.208 302.883C488.208 304.055 489.151 305 490.319 305C491.478 305 492.421 304.055 492.421 302.883C492.421 302.122 492.019 301.451 491.412 301.077H497.774C497.167 301.451 496.765 302.122 496.765 302.883C496.765 304.055 497.709 305 498.877 305C500.035 305 500.988 304.055 500.988 302.883C500.988 302.122 500.577 301.451 499.97 301.077H502.1C502.408 301.077 502.661 300.829 502.661 300.521C502.661 300.21 502.408 299.96 502.1 299.96H488.114L486.76 295.782L486.844 295.789H501.726C502.137 295.789 502.567 295.47 502.689 295.078L505.968 284.432C506.089 284.043 505.856 283.718 505.445 283.718Z" fill="#FFFFFE"/>
<path fill-rule="evenodd" clip-rule="evenodd" d="M286.001 353C207.024 353 143 350.537 143 347.5C143 344.462 207.024 342 286.001 342C364.978 342 429 344.462 429 347.5C429 350.537 364.978 353 286.001 353Z" fill="#33A3B4"/>
<path fill-rule="evenodd" clip-rule="evenodd" d="M251 340H321V316H251V340Z" fill="#FFFFFE"/>
<path fill-rule="evenodd" clip-rule="evenodd" d="M299.201 323.704L251 340V316H321L299.201 323.704Z" fill="#D0D0CB"/>
<path fill-rule="evenodd" clip-rule="evenodd" d="M438 96.7921V292H135V96.7921C135 89.1518 139.527 82.655 145.669 80.6507C146.946 80.2203 148.295 80 149.691 80H423.309C424.705 80 426.054 80.2203 427.331 80.6507C433.473 82.655 438 89.1518 438 96.7921Z" fill="#484E5B"/>
<path fill-rule="evenodd" clip-rule="evenodd" d="M135 292V302.714C135 310.571 141.611 317 149.691 317H423.309C431.389 317 438 310.571 438 302.714V292H135Z" fill="#FFFFFE"/>
<path fill-rule="evenodd" clip-rule="evenodd" d="M146 279H427V92H146V279Z" fill="#FFFFFE"/>
<path fill-rule="evenodd" clip-rule="evenodd" d="M292 304C292 307.867 288.866 311 285 311C281.133 311 278 307.867 278 304C278 300.133 281.133 297 285 297C288.866 297 292 300.133 292 304Z" fill="#D0D0CB"/>
<path fill-rule="evenodd" clip-rule="evenodd" d="M243 346H331V341H243V346Z" fill="#FFFFFE"/>
<path fill-rule="evenodd" clip-rule="evenodd" d="M146 104H427V89H146V104Z" fill="#FFFFFE"/>
<path fill-rule="evenodd" clip-rule="evenodd" d="M146 164H427V141H146V164Z" fill="#FF8765"/>
<path fill-rule="evenodd" clip-rule="evenodd" d="M434 116H404V80H423.688C425.112 80 426.491 80.1938 427.794 80.5723L433.681 114.154L434 116Z" fill="#F1B238"/>
<path fill-rule="evenodd" clip-rule="evenodd" d="M258 116H288V80H258V116Z" fill="#E67544"/>
<path fill-rule="evenodd" clip-rule="evenodd" d="M228 116H258V80H228V116Z" fill="#F1B238"/>
<path fill-rule="evenodd" clip-rule="evenodd" d="M198 116H228V80H198V116Z" fill="#E67544"/>
<path fill-rule="evenodd" clip-rule="evenodd" d="M169 116H199V80H169V116Z" fill="#F1B238"/>
<path fill-rule="evenodd" clip-rule="evenodd" d="M170 80V116H140L140.319 114.154L146.206 80.5723C147.509 80.1938 148.887 80 150.312 80H170Z" fill="#E67544"/>
<path fill-rule="evenodd" clip-rule="evenodd" d="M170 136.524C170 155.825 140 155.825 140 136.524C140 128.682 140 120.842 140 113C150 113 160 113 170 113C170 120.842 170 128.682 170 136.524Z" fill="#F0AC88"/>
<path fill-rule="evenodd" clip-rule="evenodd" d="M199 136.524C199 155.825 169 155.825 169 136.524C169 128.682 169 120.842 169 113C179 113 189 113 199 113C199 120.842 199 128.682 199 136.524Z" fill="#F8D07E"/>
<path fill-rule="evenodd" clip-rule="evenodd" d="M228 136.524C228 155.825 198 155.825 198 136.524C198 128.682 198 120.842 198 113C208 113 218 113 228 113C228 120.842 228 128.682 228 136.524Z" fill="#F0AC88"/>
<path fill-rule="evenodd" clip-rule="evenodd" d="M258 136.524C258 155.825 228 155.825 228 136.524C228 128.682 228 120.842 228 113C238 113 248 113 258 113C258 120.842 258 128.682 258 136.524Z" fill="#F8D07E"/>
<path fill-rule="evenodd" clip-rule="evenodd" d="M288 136.524C288 155.825 258 155.825 258 136.524C258 128.682 258 120.842 258 113C268 113 278 113 288 113C288 120.842 288 128.682 288 136.524Z" fill="#F0AC88"/>
<path fill-rule="evenodd" clip-rule="evenodd" d="M316 116H346V80H316V116Z" fill="#E67544"/>
<path fill-rule="evenodd" clip-rule="evenodd" d="M286 116H316V80H286V116Z" fill="#F1B238"/>
<path fill-rule="evenodd" clip-rule="evenodd" d="M316 136.524C316 155.825 286 155.825 286 136.524C286 128.682 286 120.842 286 113C296 113 306 113 316 113C316 120.842 316 128.682 316 136.524Z" fill="#F8D07E"/>
<path fill-rule="evenodd" clip-rule="evenodd" d="M346 136.524C346 155.825 316 155.825 316 136.524C316 128.682 316 120.842 316 113C326 113 336 113 346 113C346 120.842 346 128.682 346 136.524Z" fill="#F0AC88"/>
<path fill-rule="evenodd" clip-rule="evenodd" d="M374 116H404V80H374V116Z" fill="#E67544"/>
<path fill-rule="evenodd" clip-rule="evenodd" d="M346 116H376V80H346V116Z" fill="#F1B238"/>
<path fill-rule="evenodd" clip-rule="evenodd" d="M376 136.524C376 155.825 346 155.825 346 136.524C346 128.682 346 120.842 346 113C356 113 366 113 376 113C376 120.842 376 128.682 376 136.524Z" fill="#F8D07E"/>
<path fill-rule="evenodd" clip-rule="evenodd" d="M404 136.524C404 155.825 374 155.825 374 136.524C374 128.682 374 120.842 374 113C384 113 394 113 404 113C404 120.842 404 128.682 404 136.524Z" fill="#F0AC88"/>
<path fill-rule="evenodd" clip-rule="evenodd" d="M434 136.524C434 155.825 404 155.825 404 136.524C404 128.682 404 120.842 404 113C414 113 423.997 113 434 113C434 120.842 434 128.682 434 136.524Z" fill="#F8D07E"/>
<path fill-rule="evenodd" clip-rule="evenodd" d="M274 187H334V184H274V187Z" fill="#BAC2C2"/>
<path fill-rule="evenodd" clip-rule="evenodd" d="M274 195H395V192H274V195Z" fill="#BAC2C2"/>
<path fill-rule="evenodd" clip-rule="evenodd" d="M274 204H359V201H274V204Z" fill="#BAC2C2"/>
<path fill-rule="evenodd" clip-rule="evenodd" d="M274 214H323V211H274V214Z" fill="#BAC2C2"/>
<path fill-rule="evenodd" clip-rule="evenodd" d="M362 234C362 240.628 356.639 246 350.026 246H303.974C297.361 246 292 240.628 292 234C292 227.372 297.361 222 303.974 222H350.026C356.639 222 362 227.372 362 234Z" fill="#FF8765"/>
<path fill-rule="evenodd" clip-rule="evenodd" d="M318.12 239.6C318.671 239.6 319.097 239.511 319.4 239.333C319.702 239.153 319.914 238.88 320.035 238.511C320.156 238.141 320.217 237.641 320.217 237.007C320.217 236.109 320.041 235.437 319.689 234.994C319.336 234.55 318.764 234.328 317.972 234.328H316.866V239.6H318.12ZM317.972 232.842C318.742 232.842 319.276 232.666 319.573 232.315C319.87 231.963 320.019 231.362 320.019 230.509C320.019 229.886 319.928 229.428 319.746 229.135C319.565 228.841 319.292 228.654 318.929 228.574C318.566 228.493 318.027 228.452 317.311 228.452H316.866V232.842H317.972ZM315 227H318.071C319.281 227 320.178 227.285 320.762 227.856C321.345 228.425 321.637 229.31 321.637 230.509C321.637 232.295 320.998 233.28 319.722 233.464C320.514 233.659 321.092 234.05 321.455 234.631C321.818 235.213 322 236.005 322 237.007C322 238.263 321.717 239.243 321.15 239.946C320.583 240.649 319.722 241 318.566 241H315V227Z" fill="#FFFFFE"/>
<path fill-rule="evenodd" clip-rule="evenodd" d="M324.356 240.419C323.842 240.032 323.487 239.49 323.293 238.795C323.098 238.1 323 237.228 323 236.179V227H324.755V236.265C324.755 237.313 324.871 238.111 325.104 238.657C325.336 239.204 325.805 239.48 326.509 239.48C327.212 239.48 327.68 239.204 327.914 238.657C328.147 238.111 328.262 237.313 328.262 236.265V227H330V236.179C330 237.228 329.903 238.1 329.709 238.795C329.513 239.49 329.162 240.032 328.653 240.419C328.144 240.806 327.429 241 326.509 241C325.589 241 324.871 240.806 324.356 240.419Z" fill="#FFFFFE"/>
<path fill-rule="evenodd" clip-rule="evenodd" d="M334.681 236.057L332 227H333.609L335.508 233.758L337.376 227H339L336.335 236.057V241H334.681V236.057Z" fill="#FFFFFE"/>
<path fill-rule="evenodd" clip-rule="evenodd" d="M265 217C265 231.141 258.619 243.799 248.572 252.236C240.574 258.958 230.263 263 219 263C207.736 263 197.426 258.958 189.428 252.236C179.381 243.799 173 231.141 173 217C173 191.595 193.595 171 219 171C244.405 171 265 191.595 265 217Z" fill="#385461"/>
<path fill-rule="evenodd" clip-rule="evenodd" d="M189 223H247V206H189V223Z" fill="#2D2E2C"/>
<path fill-rule="evenodd" clip-rule="evenodd" d="M247 214V251.268C238.844 257.97 229.094 262 218 262C206.905 262 197.156 257.97 189 251.268V214H247Z" fill="#F7C23F"/>
<path fill-rule="evenodd" clip-rule="evenodd" d="M196 210.228V214H189V209H194.5L196 210.228Z" fill="#B48E34"/>
<path fill-rule="evenodd" clip-rule="evenodd" d="M196 211.002L189.616 215.523L189 216V206L194.279 209.752L196 211.002Z" fill="#F7C23F"/>
<path fill-rule="evenodd" clip-rule="evenodd" d="M241 210.228V214H248V209H242.5L241 210.228Z" fill="#B48E34"/>
<path fill-rule="evenodd" clip-rule="evenodd" d="M241 211.002L247.384 215.523L248 216V206L242.721 209.752L241 211.002Z" fill="#F7C23F"/>
<path fill-rule="evenodd" clip-rule="evenodd" d="M217.925 251H217.598C208.662 251 201 243.82 201 234.722V223H203.75V234.722C203.75 242.349 210.107 248.2 217.598 248.2H217.925C225.417 248.2 231.25 242.349 231.25 234.722V223H234V234.722C234 243.82 226.862 251 217.925 251Z" fill="#FFFFFE"/>
<path fill-rule="evenodd" clip-rule="evenodd" d="M201 222H204V219H201V222Z" fill="#B48E34"/>
<path fill-rule="evenodd" clip-rule="evenodd" d="M231 222H234V219H231V222Z" fill="#B48E34"/>
<path fill-rule="evenodd" clip-rule="evenodd" d="M49 213H112V201H49V213Z" fill="#484E5B"/>
<path fill-rule="evenodd" clip-rule="evenodd" d="M49 260H112V213H49V260Z" fill="#FFFFFE"/>
<path fill-rule="evenodd" clip-rule="evenodd" d="M98 248H101V226H98V248Z" fill="#484E5B"/>
<path fill-rule="evenodd" clip-rule="evenodd" d="M91 247H94V240H91V247Z" fill="#E15971"/>
<path fill-rule="evenodd" clip-rule="evenodd" d="M85 247H88V229H85V247Z" fill="#484E5B"/>
<path fill-rule="evenodd" clip-rule="evenodd" d="M77 247H80V236H77V247Z" fill="#E15971"/>
<path fill-rule="evenodd" clip-rule="evenodd" d="M71 248H74V231H71V248Z" fill="#484E5B"/>
<path fill-rule="evenodd" clip-rule="evenodd" d="M65 248H68V226H65V248Z" fill="#E15971"/>
<path fill-rule="evenodd" clip-rule="evenodd" d="M57 247H60V229H57V247Z" fill="#484E5B"/>
<path fill-rule="evenodd" clip-rule="evenodd" d="M116 141H113V139.5H114.5V138H116V141Z" fill="#FFFFFE"/>
<path fill-rule="evenodd" clip-rule="evenodd" d="M29 142H31.7586V140H29V142ZM37.2759 142H42.7931V140H37.2759V142ZM48.3103 142H53.8276V140H48.3103V142ZM59.3448 142H64.8621V140H59.3448V142ZM70.3793 142H75.8966V140H70.3793V142ZM81.4138 142H86.931V140H81.4138V142ZM92.4483 142H97.9655V140H92.4483V142ZM103.483 142H109V140H103.483V142Z" fill="#FFFFFE"/>
<path fill-rule="evenodd" clip-rule="evenodd" d="M25 141H22V138H23.5V139.5H25V141Z" fill="#FFFFFE"/>
<path fill-rule="evenodd" clip-rule="evenodd" d="M22 76.7619H24V74H22V76.7619ZM22 87.8095H24V82.2857H22V87.8095ZM22 98.8571H24V93.3333H22V98.8571ZM22 109.905H24V104.381H22V109.905ZM22 120.952H24V115.429H22V120.952ZM22 132H24V126.476H22V132Z" fill="#FFFFFE"/>
<path fill-rule="evenodd" clip-rule="evenodd" d="M23.5 71H22V68H25V69.5H23.5V71Z" fill="#FFFFFE"/>
<path fill-rule="evenodd" clip-rule="evenodd" d="M31 70H36.5172V68H31V70ZM42.0345 70H47.5517V68H42.0345V70ZM53.069 70H58.5862V68H53.069V70ZM64.1034 70H69.6207V68H64.1034V70ZM75.1379 70H80.6552V68H75.1379V70ZM86.1724 70H91.6897V68H86.1724V70ZM97.2069 70H102.724V68H97.2069V70ZM108.241 70H111V68H108.241V70Z" fill="#FFFFFE"/>
<path fill-rule="evenodd" clip-rule="evenodd" d="M116 71H114.5V69.5H113V68H116V71Z" fill="#FFFFFE"/>
<path fill-rule="evenodd" clip-rule="evenodd" d="M116 82.5238H118V77H116V82.5238ZM116 93.5714H118V88.0476H116V93.5714ZM116 104.619H118V99.0952H116V104.619ZM116 115.667H118V110.143H116V115.667ZM116 126.714H118V121.19H116V126.714ZM116 135H118V132.238H116V135Z" fill="#FFFFFE"/>
<path fill-rule="evenodd" clip-rule="evenodd" d="M89 99.5C89 109.717 80.7176 118 70.5 118C60.2824 118 52 109.717 52 99.5C52 89.2824 60.2824 81 70.5 81C80.7176 81 89 89.2824 89 99.5Z" fill="#385461"/>
<path fill-rule="evenodd" clip-rule="evenodd" d="M53.1544 129.983C53.5191 129.983 53.7833 129.927 53.947 129.815C54.1107 129.702 54.2149 129.546 54.2595 129.346C54.3042 129.145 54.3265 128.846 54.3265 128.451V125.391C54.3265 125.034 54.3005 124.764 54.2484 124.581C54.1963 124.397 54.0865 124.26 53.9191 124.171C53.7516 124.082 53.4893 124.038 53.1321 124.038H52.6409V129.983H53.1544ZM51 123H53.1321C53.8614 123 54.4344 123.088 54.8512 123.263C55.2679 123.437 55.5637 123.704 55.7386 124.062C55.9135 124.421 56 124.897 56 125.489V128.403C56 129.008 55.9135 129.498 55.7386 129.873C55.5637 130.249 55.2716 130.531 54.8623 130.719C54.453 130.906 53.8986 131 53.1991 131H51V123Z" fill="#484E5B"/>
<path fill-rule="evenodd" clip-rule="evenodd" d="M57 131H59V123H57V131Z" fill="#484E5B"/>
<path fill-rule="evenodd" clip-rule="evenodd" d="M59.5559 132.254C59.2163 131.756 59.0305 131.012 59 130.024L60.1891 129.724C60.2071 130.341 60.2836 130.814 60.4187 131.139C60.553 131.465 60.7638 131.628 61.0511 131.628C61.2635 131.628 61.4212 131.545 61.5243 131.381C61.6274 131.216 61.6789 130.993 61.6789 130.712C61.6789 130.325 61.6118 130.001 61.4775 129.735C61.3432 129.471 61.1316 129.174 60.845 128.844L59.8885 127.771C59.5957 127.434 59.3748 127.087 59.2288 126.73C59.082 126.372 59.0086 125.933 59.0086 125.41C59.0086 124.64 59.1835 124.044 59.5333 123.627C59.8823 123.209 60.3679 123 60.9856 123C61.6352 123 62.0997 123.24 62.3824 123.718C62.6627 124.196 62.8251 124.839 62.8688 125.652L61.6789 125.917C61.6602 125.395 61.6055 124.997 61.5142 124.724C61.4244 124.451 61.2471 124.314 60.9856 124.314C60.7732 124.314 60.6053 124.398 60.4843 124.566C60.3625 124.735 60.3024 124.957 60.3024 125.23C60.3024 125.543 60.3516 125.803 60.4515 126.012C60.5514 126.221 60.7076 126.45 60.92 126.699L61.8663 127.771C62.2223 128.182 62.5003 128.607 62.7002 129.048C62.9001 129.491 63 130.008 63 130.603C63 131.069 62.9204 131.483 62.7611 131.844C62.6018 132.205 62.3785 132.489 62.0912 132.694C61.8038 132.898 61.4736 133 61.098 133C60.4101 133 59.8971 132.752 59.5559 132.254Z" fill="#484E5B"/>
<path fill-rule="evenodd" clip-rule="evenodd" d="M66.5824 132.152C66.1935 131.585 66 130.783 66 129.748V126.265C66 125.198 66.1917 124.386 66.5769 123.832C66.962 123.278 67.6259 123 68.5667 123C69.4472 123 70.0741 123.242 70.4435 123.724C70.8148 124.206 71 124.9 71 125.807V126.628H69.4222V125.783C69.4222 125.439 69.4074 125.168 69.3778 124.97C69.3481 124.774 69.2722 124.613 69.15 124.488C69.0278 124.364 68.837 124.301 68.5778 124.301C68.3102 124.301 68.1111 124.368 67.9769 124.501C67.8444 124.633 67.7565 124.81 67.7167 125.03C67.675 125.252 67.6546 125.539 67.6546 125.892V130.121C67.6546 130.675 67.7222 131.074 67.8556 131.32C67.9889 131.565 68.2296 131.688 68.5778 131.688C68.8287 131.688 69.0167 131.623 69.138 131.494C69.2611 131.365 69.3389 131.196 69.3713 130.983C69.4056 130.77 69.4222 130.486 69.4222 130.133V129.253H71V130.037C71 130.977 70.8176 131.705 70.4556 132.223C70.0926 132.742 69.463 133 68.5667 133C67.6333 133 66.9713 132.718 66.5824 132.152Z" fill="#484E5B"/>
<path fill-rule="evenodd" clip-rule="evenodd" d="M74.2111 131.314C74.3324 131.065 74.394 130.704 74.394 130.23V125.736C74.394 125.261 74.3342 124.904 74.2173 124.664C74.0987 124.422 73.8622 124.301 73.5045 124.301C73.1476 124.301 72.9085 124.424 72.788 124.67C72.6667 124.915 72.606 125.27 72.606 125.736V130.23C72.606 130.704 72.6667 131.065 72.788 131.314C72.9085 131.563 73.1476 131.688 73.5045 131.688C73.8551 131.688 74.0906 131.563 74.2111 131.314ZM71.5773 132.187C71.1927 131.646 71 130.852 71 129.808V126.146C71 125.109 71.1927 124.326 71.5773 123.795C71.9627 123.266 72.606 123 73.5045 123C74.3967 123 75.0364 123.266 75.4218 123.795C75.8064 124.326 76 125.109 76 126.146V129.808C76 130.843 75.8055 131.636 75.4165 132.181C75.0266 132.728 74.3904 133 73.5045 133C72.606 133 71.9627 132.729 71.5773 132.187Z" fill="#484E5B"/>
<path fill-rule="evenodd" clip-rule="evenodd" d="M77.987 132.611C77.6205 132.351 77.3646 131.981 77.2184 131.502C77.0722 131.024 77 130.415 77 129.675V123H78.5783V129.883C78.5783 130.451 78.6396 130.89 78.7593 131.197C78.8799 131.507 79.1267 131.661 79.4995 131.661C79.8797 131.661 80.1301 131.507 80.2508 131.197C80.3723 130.89 80.4317 130.451 80.4317 129.883V123H82V129.675C82 130.407 81.9269 131.014 81.7807 131.496C81.6344 131.98 81.3795 132.351 81.013 132.611C80.6474 132.87 80.1438 133 79.4995 133C78.8571 133 78.3517 132.87 77.987 132.611Z" fill="#484E5B"/>
<path fill-rule="evenodd" clip-rule="evenodd" d="M84 123H84.9757L86.8442 127.563V123H88V131H87.0717L85.1945 126.219V131H84V123Z" fill="#484E5B"/>
<path fill-rule="evenodd" clip-rule="evenodd" d="M90.3017 124.076H89V123H93V124.076H91.7183V131H90.3017V124.076Z" fill="#484E5B"/>
<path fill-rule="evenodd" clip-rule="evenodd" d="M29.0311 169.873C28.3258 167.664 28.8683 165.346 30.2554 163.7L33.7881 161.582C36.8986 160.936 40.0669 162.757 41.0706 165.898C42.1493 169.272 40.3255 172.909 37.0062 174.005C33.6869 175.102 30.1089 173.248 29.0311 169.873ZM25.5915 171.009C27.2878 176.32 32.8993 179.228 38.1229 177.503C43.3483 175.778 46.2074 170.073 44.5111 164.762C42.8139 159.45 37.2033 156.542 31.9788 158.267L31.7935 158.34L27.5419 152.417C27.4931 151.884 27.248 151.395 27.0789 150.865L13.1144 107.148C11.8801 103.284 8.29949 101.005 4 102.425L22.4331 160.131L25.6033 164.376C24.8356 166.448 24.8663 168.739 25.5915 171.009Z" fill="#385461"/>
<path fill-rule="evenodd" clip-rule="evenodd" d="M8.07658 173.984C4.71434 172.865 2.88456 169.209 3.99949 165.833C5.03643 162.691 8.26378 160.885 11.4168 161.553L14.9883 163.696C16.3858 165.355 16.9227 167.681 16.194 169.89C15.08 173.266 11.4379 175.103 8.07658 173.984ZM19.7059 164.402L22.9479 160.167L42 102.441C37.6449 100.992 33.9982 103.256 32.7226 107.12L18.289 150.852C18.1138 151.382 17.8632 151.871 17.81 152.404L13.4595 158.314L13.2723 158.24C7.98023 156.48 2.26882 159.36 0.515203 164.674C-1.23841 169.987 1.62922 175.722 6.92127 177.483C12.2133 179.244 17.9247 176.363 19.6783 171.051C20.4281 168.78 20.4721 166.483 19.7059 164.402Z" fill="#385461"/>
<path fill-rule="evenodd" clip-rule="evenodd" d="M60 101.804L61.8913 98.031L62.0717 97.677C62.2853 97.2364 62.4444 96.8692 62.5485 96.5721C62.6533 96.275 62.7053 95.9393 62.7053 95.5638C62.7053 94.7988 62.4965 94.4162 62.0812 94.4162C61.7904 94.4162 61.5894 94.5597 61.476 94.8435C61.3617 95.1294 61.305 95.512 61.305 95.9911V96.4073H60.0292V95.9667C60.0292 95.0389 60.1891 94.3124 60.5106 93.7875C60.8329 93.2635 61.3436 93 62.0433 93C62.6856 93 63.1726 93.2248 63.5043 93.6725C63.8353 94.1191 64 94.755 64 95.5771C64 95.9596 63.959 96.3137 63.8771 96.6392C63.7951 96.9638 63.6974 97.2537 63.5847 97.5061C63.4704 97.7584 63.2947 98.1165 63.0552 98.5794L61.4854 101.644H63.8109V103H60V101.804Z" fill="#FFFFFE"/>
<path fill-rule="evenodd" clip-rule="evenodd" d="M67.4282 102.251C67.143 101.753 67 101.013 67 100.031H68.3007C68.3007 100.591 68.3497 101.013 68.4453 101.296C68.5425 101.581 68.7313 101.722 69.0149 101.722C69.2262 101.722 69.3836 101.636 69.4872 101.46C69.5893 101.287 69.6552 101.052 69.6849 100.756C69.713 100.46 69.7283 100.047 69.7283 99.52C69.7283 98.8723 69.6801 98.3938 69.5828 98.0846C69.4872 97.7775 69.288 97.6224 68.9851 97.6224C68.8052 97.6224 68.6525 97.7005 68.5272 97.8535C68.4019 98.0086 68.3103 98.2195 68.2525 98.4861H67.1052L67.1824 93H70.6923V94.5094H68.3007L68.2235 96.8804C68.3328 96.7273 68.4903 96.6026 68.6959 96.5104C68.9016 96.4161 69.1257 96.3705 69.3708 96.3705C69.9235 96.3705 70.3332 96.6361 70.5999 97.1673C70.8666 97.6984 71 98.4455 71 99.4116C71 100.166 70.9438 100.802 70.8321 101.32C70.7188 101.84 70.5148 102.25 70.2199 102.55C69.9235 102.85 69.5057 103 68.9659 103C68.2268 103 67.7142 102.75 67.4282 102.251Z" fill="#FFFFFE"/>
<path fill-rule="evenodd" clip-rule="evenodd" d="M80.5359 101.531C80.6214 101.31 80.6626 100.972 80.6626 100.516V99.9271C80.6626 99.4712 80.6223 99.1418 80.5417 98.9429C80.461 98.743 80.2786 98.643 79.9944 98.643C79.7179 98.643 79.5403 98.743 79.4597 98.9429C79.379 99.1418 79.3387 99.4712 79.3387 99.9271V100.516C79.3387 100.972 79.381 101.31 79.4645 101.531C79.549 101.752 79.7256 101.861 79.9944 101.861C80.2709 101.861 80.4514 101.752 80.5359 101.531ZM78.4737 102.382C78.1588 101.97 78.0023 101.351 78.0023 100.527V99.9271C78.0023 99.0959 78.155 98.4829 78.4622 98.0923C78.7694 97.6996 79.2811 97.5038 79.9944 97.5038C80.7164 97.5038 81.231 97.6956 81.5392 98.079C81.8464 98.4625 82 99.0673 82 99.8904V100.552C82 101.376 81.8426 101.989 81.5276 102.393C81.2127 102.797 80.701 103 79.9944 103C79.2965 103 78.7886 102.793 78.4737 102.382ZM77.841 93.0377H78.8894L76.1705 102.963H75.1096L77.841 93.0377ZM74.5336 97.0388C74.6181 96.8195 74.6613 96.4768 74.6613 96.0117V95.4233C74.6613 94.9674 74.621 94.64 74.5403 94.4442C74.4597 94.2494 74.2763 94.1504 73.9921 94.1504C73.7156 94.1504 73.538 94.2514 73.4574 94.4503C73.3767 94.6512 73.3354 94.9786 73.3354 95.4365V96.0229C73.3354 96.4809 73.3786 96.8195 73.4622 97.0388C73.5467 97.2601 73.7233 97.3702 73.9921 97.3702C74.2686 97.3702 74.4491 97.2601 74.5336 97.0388ZM72.4714 97.8842C72.1565 97.4671 72 96.8521 72 96.0362V95.4365C72 94.5951 72.1526 93.9791 72.4608 93.5885C72.7671 93.1958 73.2788 93 73.9921 93C74.7141 93 75.2287 93.1917 75.5369 93.5752C75.8441 93.9597 75.9967 94.5635 75.9967 95.3865V96.0597C75.9967 96.8766 75.8393 97.4875 75.5253 97.8965C75.2104 98.3044 74.6987 98.5074 73.9921 98.5074C73.2942 98.5074 72.7863 98.3004 72.4714 97.8842Z" fill="#FFFFFE"/>
<path fill-rule="evenodd" clip-rule="evenodd" d="M411 25.875V67.125C411 68.1562 410.184 69 409.188 69H354.812C353.816 69 353 68.1562 353 67.125V25.875C353 24.8438 353.816 24 354.812 24H409.188C410.184 24 411 24.8438 411 25.875Z" fill="#385461"/>
<path fill-rule="evenodd" clip-rule="evenodd" d="M353 40H411V34H353V40Z" fill="#FFFFFE"/>
<path fill-rule="evenodd" clip-rule="evenodd" d="M356 53H381V51H356V53Z" fill="#F1B238"/>
<path fill-rule="evenodd" clip-rule="evenodd" d="M356 49H371V47H356V49Z" fill="#F1B238"/>
<path fill-rule="evenodd" clip-rule="evenodd" d="M373 49H383V47H373V49Z" fill="#F1B238"/>
<path fill-rule="evenodd" clip-rule="evenodd" d="M356 56H371V54H356V56Z" fill="#F1B238"/>
<path fill-rule="evenodd" clip-rule="evenodd" d="M373 56H383V54H373V56Z" fill="#F1B238"/>
<path fill-rule="evenodd" clip-rule="evenodd" d="M406 56C406 59.8659 402.867 63 399 63C395.133 63 392 59.8659 392 56C392 52.1341 395.133 49 399 49C402.867 49 406 52.1341 406 56Z" fill="#F1B238"/>
<path fill-rule="evenodd" clip-rule="evenodd" d="M295 1.83784V66.1622C295 67.173 294.168 68 293.151 68H198.849C197.832 68 197 67.173 197 66.1622V1.83784C197 0.827027 197.832 0 198.849 0H293.151C294.168 0 295 0.827027 295 1.83784Z" fill="#484E5B"/>
<path fill-rule="evenodd" clip-rule="evenodd" d="M239 0L197 42V18.8696L215.874 0H239Z" fill="#FF8765"/>
<path fill-rule="evenodd" clip-rule="evenodd" d="M221.557 34.253C221.217 33.755 221.031 33.012 221 32.0241L222.19 31.7229C222.208 32.3414 222.285 32.8133 222.419 33.1386C222.553 33.4639 222.764 33.6265 223.052 33.6265C223.264 33.6265 223.422 33.5442 223.525 33.3795C223.628 33.2149 223.679 32.992 223.679 32.7108C223.679 32.3253 223.612 32 223.478 31.7349C223.343 31.4699 223.133 31.1727 222.845 30.8434L221.89 29.7711C221.596 29.4337 221.376 29.0863 221.23 28.7289C221.083 28.3715 221.009 27.9317 221.009 27.4096C221.009 26.6386 221.184 26.0442 221.534 25.6265C221.884 25.2088 222.368 25 222.986 25C223.635 25 224.101 25.239 224.382 25.7169C224.663 26.1948 224.825 26.8394 224.869 27.6506L223.679 27.9157C223.66 27.3936 223.606 26.996 223.515 26.7229C223.425 26.4498 223.248 26.3133 222.986 26.3133C222.774 26.3133 222.607 26.3976 222.485 26.5663C222.363 26.7349 222.302 26.9558 222.302 27.2289C222.302 27.5422 222.352 27.8032 222.452 28.012C222.551 28.2209 222.708 28.4498 222.92 28.6988L223.867 29.7711C224.222 30.1807 224.5 30.6064 224.7 31.0482C224.9 31.49 225 32.008 225 32.6024C225 33.0683 224.92 33.4819 224.761 33.8434C224.602 34.2048 224.379 34.488 224.091 34.6928C223.804 34.8976 223.473 35 223.098 35C222.411 35 221.898 34.751 221.557 34.253Z" fill="#FFFFFE"/>
<path fill-rule="evenodd" clip-rule="evenodd" d="M227.987 36.6102C227.621 36.3504 227.365 35.9809 227.219 35.5018C227.073 35.0227 227 34.4137 227 33.6748V27H228.578V33.8819C228.578 34.4503 228.639 34.8888 228.76 35.1973C228.88 35.5059 229.127 35.6602 229.5 35.6602C229.879 35.6602 230.13 35.5059 230.251 35.1973C230.371 34.8888 230.432 34.4503 230.432 33.8819V27H232V33.6748C232 34.4056 231.926 35.0126 231.78 35.4957C231.634 35.9789 231.379 36.3504 231.012 36.6102C230.648 36.8701 230.142 37 229.5 37C228.857 37 228.351 36.8701 227.987 36.6102Z" fill="#FFFFFE"/>
<path fill-rule="evenodd" clip-rule="evenodd" d="M232.149 27H233.773L234.995 32.5407L236.258 27H237.84L238 35H236.832L236.704 29.4395L235.482 35H234.538L233.296 29.4198L233.179 35H232L232.149 27Z" fill="#FFFFFE"/>
<path fill-rule="evenodd" clip-rule="evenodd" d="M241.149 27H242.773L243.995 32.5407L245.258 27H246.841L247 35H245.832L245.704 29.4395L244.483 35H243.538L242.296 29.4198L242.179 35H241L241.149 27Z" fill="#FFFFFE"/>
<path fill-rule="evenodd" clip-rule="evenodd" d="M248 27H251.977V28.0272H249.719V30.3284H251.498V31.3457H249.719V34.0025H252V35H248V27Z" fill="#FFFFFE"/>
<path fill-rule="evenodd" clip-rule="evenodd" d="M254.1 30.4272C254.555 30.4272 254.877 30.3317 255.068 30.1407C255.259 29.9498 255.355 29.637 255.355 29.2025C255.355 28.7811 255.269 28.4749 255.101 28.284C254.931 28.093 254.626 27.9975 254.186 27.9975H253.591V30.4272H254.1ZM252 27H254.11C255.034 27 255.723 27.1597 256.177 27.479C256.632 27.7984 256.859 28.3465 256.859 29.1235C256.859 29.6305 256.778 30.0436 256.616 30.363C256.453 30.6823 256.174 30.9144 255.777 31.0593L257 35H255.398L254.348 31.3358H253.591V35H252V27Z" fill="#FFFFFE"/>
<path fill-rule="evenodd" clip-rule="evenodd" d="M261.557 34.253C261.216 33.755 261.031 33.012 261 32.0241L262.189 31.7229C262.208 32.3414 262.284 32.8133 262.418 33.1386C262.553 33.4639 262.763 33.6265 263.052 33.6265C263.263 33.6265 263.421 33.5442 263.524 33.3795C263.628 33.2149 263.678 32.992 263.678 32.7108C263.678 32.3253 263.611 32 263.478 31.7349C263.343 31.4699 263.132 31.1727 262.845 30.8434L261.889 29.7711C261.596 29.4337 261.375 29.0863 261.23 28.7289C261.082 28.3715 261.009 27.9317 261.009 27.4096C261.009 26.6386 261.183 26.0442 261.533 25.6265C261.884 25.2088 262.368 25 262.986 25C263.635 25 264.1 25.239 264.382 25.7169C264.662 26.1948 264.824 26.8394 264.869 27.6506L263.678 27.9157C263.66 27.3936 263.606 26.996 263.514 26.7229C263.424 26.4498 263.248 26.3133 262.986 26.3133C262.773 26.3133 262.606 26.3976 262.484 26.5663C262.363 26.7349 262.302 26.9558 262.302 27.2289C262.302 27.5422 262.351 27.8032 262.451 28.012C262.551 28.2209 262.707 28.4498 262.92 28.6988L263.867 29.7711C264.222 30.1807 264.5 30.6064 264.7 31.0482C264.9 31.49 265 32.008 265 32.6024C265 33.0683 264.92 33.4819 264.76 33.8434C264.602 34.2048 264.379 34.488 264.091 34.6928C263.803 34.8976 263.473 35 263.098 35C262.411 35 261.897 34.751 261.557 34.253Z" fill="#FFFFFE"/>
<path fill-rule="evenodd" clip-rule="evenodd" d="M269.08 32.2247L268.51 28.8667L267.94 32.2247H269.08ZM267.68 27H269.319L271 35H269.578L269.246 33.1531H267.784L267.442 35H266L267.68 27Z" fill="#FFFFFE"/>
<path fill-rule="evenodd" clip-rule="evenodd" d="M272 27H273.709V34.0025H276V35H272V27Z" fill="#FFFFFE"/>
<path fill-rule="evenodd" clip-rule="evenodd" d="M277 27H280.976V28.0272H278.719V30.3284H280.497V31.3457H278.719V34.0025H281V35H277V27Z" fill="#FFFFFE"/>
<path fill-rule="evenodd" clip-rule="evenodd" d="M224.212 47.3133C224.333 47.0643 224.394 46.7028 224.394 46.2289V41.7349C224.394 41.261 224.335 40.9036 224.217 40.6627C224.1 40.4217 223.862 40.3012 223.505 40.3012C223.148 40.3012 222.909 40.4237 222.788 40.6687C222.667 40.9137 222.606 41.2691 222.606 41.7349V46.2289C222.606 46.7028 222.667 47.0643 222.788 47.3133C222.909 47.5622 223.148 47.6867 223.505 47.6867C223.854 47.6867 224.091 47.5622 224.212 47.3133ZM221.578 48.1867C221.193 47.6446 221 46.8514 221 45.8072V42.1446C221 41.1084 221.193 40.3253 221.578 39.7952C221.964 39.2651 222.606 39 223.505 39C224.398 39 225.036 39.2651 225.422 39.7952C225.807 40.3253 226 41.1084 226 42.1446V45.8072C226 46.8434 225.805 47.6345 225.416 48.1807C225.027 48.7269 224.39 49 223.505 49C222.606 49 221.964 48.7289 221.578 48.1867Z" fill="#FFFFFE"/>
<path fill-rule="evenodd" clip-rule="evenodd" d="M227 39H230V40.0074H228.325V42.3383H229.694V43.3556H228.325V47H227V39Z" fill="#FFFFFE"/>
<path fill-rule="evenodd" clip-rule="evenodd" d="M232 39H235V40.0074H233.325V42.3383H234.694V43.3556H233.325V47H232V39Z" fill="#FFFFFE"/>
<path fill-rule="evenodd" clip-rule="evenodd" d="M236 39H239.976V40.0272H237.719V42.3284H239.497V43.3457H237.719V46.0025H240V47H236V39Z" fill="#FFFFFE"/>
<path fill-rule="evenodd" clip-rule="evenodd" d="M243.099 42.4272C243.554 42.4272 243.877 42.3317 244.068 42.1407C244.258 41.9498 244.355 41.637 244.355 41.2025C244.355 40.7811 244.269 40.4749 244.101 40.284C243.931 40.093 243.625 39.9975 243.186 39.9975H242.591V42.4272H243.099ZM241 39H243.11C244.033 39 244.723 39.1597 245.177 39.479C245.632 39.7984 245.859 40.3465 245.859 41.1235C245.859 41.6305 245.778 42.0436 245.615 42.363C245.453 42.6823 245.174 42.9144 244.777 43.0593L246 47H244.398L243.348 43.3358H242.591V47H241V39Z" fill="#FFFFFE"/>
<path fill-rule="evenodd" clip-rule="evenodd" d="M279 47C279 47.6602 276.455 47.9187 276.256 48.5136C276.052 49.1321 277.949 50.8044 277.568 51.3186C277.181 51.8373 274.969 50.5849 274.439 50.9631C273.913 51.3367 274.448 53.7871 273.819 53.9884C273.21 54.1816 272.175 51.8971 271.5 51.8971C270.825 51.8971 269.79 54.1807 269.181 53.9875C268.551 53.7871 269.087 51.3367 268.561 50.9622C268.031 50.5849 265.818 51.8373 265.432 51.3186C265.051 50.8044 266.948 49.1321 266.744 48.5136C266.545 47.9187 264 47.6602 264 47C264 46.3398 266.545 46.0813 266.744 45.4864C266.948 44.8679 265.051 43.1956 265.432 42.6814C265.819 42.1627 268.031 43.4151 268.561 43.0369C269.087 42.6633 268.552 40.2129 269.181 40.0116C269.79 39.8184 270.825 42.1029 271.5 42.1029C272.175 42.1029 273.21 39.8193 273.819 40.0125C274.449 40.2129 273.913 42.6633 274.438 43.0369C274.968 43.4151 277.182 42.1627 277.568 42.6814C277.949 43.1956 276.052 44.8679 276.256 45.4864C276.455 46.0813 279 46.3398 279 47Z" fill="#FFFFFE"/>
<path fill-rule="evenodd" clip-rule="evenodd" d="M279 14C279 14.6602 276.455 14.9187 276.256 15.5136C276.052 16.1321 277.949 17.8044 277.568 18.3186C277.181 18.8373 274.969 17.5849 274.439 17.9631C273.913 18.3367 274.448 20.7871 273.819 20.9884C273.21 21.1816 272.175 18.8971 271.5 18.8971C270.825 18.8971 269.79 21.1807 269.181 20.9875C268.551 20.7871 269.087 18.3367 268.561 17.9622C268.031 17.5849 265.818 18.8373 265.432 18.3186C265.051 17.8044 266.948 16.1321 266.744 15.5136C266.545 14.9187 264 14.6602 264 14C264 13.3398 266.545 13.0813 266.744 12.4864C266.948 11.8679 265.051 10.1956 265.432 9.68144C265.819 9.16271 268.031 10.4151 268.561 10.0369C269.087 9.66331 268.552 7.21292 269.181 7.01159C269.79 6.81843 270.825 9.10286 271.5 9.10286C272.175 9.10286 273.21 6.81934 273.819 7.0125C274.449 7.21292 273.913 9.66331 274.438 10.0369C274.968 10.4151 277.182 9.16271 277.568 9.68144C277.949 10.1956 276.052 11.8679 276.256 12.4864C276.455 13.0813 279 13.3398 279 14Z" fill="#FFFFFE"/>
<path fill-rule="evenodd" clip-rule="evenodd" d="M456 212H529V159H456V212Z" fill="#F7C23F"/>
<path fill-rule="evenodd" clip-rule="evenodd" d="M462 192H522V111H462V192Z" fill="#FFFFFE"/>
<path fill-rule="evenodd" clip-rule="evenodd" d="M529 212H456V159L492.5 185.5L529 159V212Z" fill="#385461"/>
<path fill-rule="evenodd" clip-rule="evenodd" d="M469 124H497V122H469V124Z" fill="#BAC2C2"/>
<path fill-rule="evenodd" clip-rule="evenodd" d="M469 132H497V130H469V132Z" fill="#BAC2C2"/>
<path fill-rule="evenodd" clip-rule="evenodd" d="M469 128H514V126H469V128Z" fill="#BAC2C2"/>
<path fill-rule="evenodd" clip-rule="evenodd" d="M480 141.611V138C473.84 138.458 469 143.085 469 148.735C469 150.649 469.56 152.442 470.53 154L473.9 152.03C473.33 151.041 473 149.923 473 148.735C473 145.078 476.06 142.055 480 141.611Z" fill="#385461"/>
<path fill-rule="evenodd" clip-rule="evenodd" d="M480 138V141.663C483.94 142.113 487 145.18 487 148.891C487 149.584 486.89 150.251 486.69 150.885L490.5 152C490.82 151.014 491 149.972 491 148.891C491 143.158 486.16 138.464 480 138Z" fill="#F1B238"/>
<path fill-rule="evenodd" clip-rule="evenodd" d="M485.538 153C484.294 155.081 481.995 156.485 479.365 156.485C477.245 156.485 475.339 155.569 474.033 154.123L471 156.06C472.968 158.461 475.983 160 479.365 160C483.596 160 487.247 157.587 489 154.09L485.538 153Z" fill="#E15971"/>
<path fill-rule="evenodd" clip-rule="evenodd" d="M495 157H498V154H495V157Z" fill="#E15971"/>
<path fill-rule="evenodd" clip-rule="evenodd" d="M495 150H498V147H495V150Z" fill="#385461"/>
<path fill-rule="evenodd" clip-rule="evenodd" d="M495 144H498V141H495V144Z" fill="#F1B238"/>
<path fill-rule="evenodd" clip-rule="evenodd" d="M500 157H515V155H500V157Z" fill="#D0D0CB"/>
<path fill-rule="evenodd" clip-rule="evenodd" d="M500 150H515V148H500V150Z" fill="#D0D0CB"/>
<path fill-rule="evenodd" clip-rule="evenodd" d="M500 144H515V142H500V144Z" fill="#D0D0CB"/>
<path fill-rule="evenodd" clip-rule="evenodd" d="M73.5 344C68.2532 344 64 343.104 64 342C64 340.896 68.2532 340 73.5 340C78.7468 340 83 340.896 83 342C83 343.104 78.7468 344 73.5 344Z" fill="#33A3B4"/>
<path fill-rule="evenodd" clip-rule="evenodd" d="M88 313.638C88 321.722 73 342 73 342C73 342 58 321.722 58 313.638C58 305.554 64.7163 299 73 299C81.2837 299 88 305.554 88 313.638Z" fill="#484E5B"/>
<path fill-rule="evenodd" clip-rule="evenodd" d="M81 313.5C81 317.642 77.6419 321 73.5 321C69.3581 321 66 317.642 66 313.5C66 309.358 69.3581 306 73.5 306C77.6419 306 81 309.358 81 313.5Z" fill="#FFFFFE"/>
<path fill-rule="evenodd" clip-rule="evenodd" d="M73.5 318C71.5706 318 70 316.43 70 314.5C70 312.57 71.5706 311 73.5 311C75.4294 311 77 312.57 77 314.5C77 316.43 75.4294 318 73.5 318Z" fill="#D45E4C"/>
<path fill-rule="evenodd" clip-rule="evenodd" d="M171 45.5C171 52.4018 165.402 58 158.5 58C155.295 58 152.366 56.7857 150.152 54.7946C147.598 52.5089 146 49.1875 146 45.5C146 38.5973 151.597 33 158.5 33C161.714 33 164.661 34.2232 166.875 36.2321C169.412 38.5089 171 41.8214 171 45.5Z" fill="#F7C125"/>
<path fill-rule="evenodd" clip-rule="evenodd" d="M158 56C152.486 56 148 51.5136 148 46C148 40.4864 152.486 36 158 36C163.514 36 168 40.4864 168 46C168 51.5136 163.514 56 158 56Z" fill="#FBDA68"/>
<path fill-rule="evenodd" clip-rule="evenodd" d="M160.069 49.3813C159.739 49.8031 159.461 50.0563 158.634 50.1313V45.6125C159.461 45.875 159.979 46.1656 160.209 46.4938C160.45 46.8219 160.566 47.2531 160.566 47.7875C160.566 48.4156 160.401 48.95 160.069 49.3813ZM156.738 43.1656C156.49 42.8281 156.465 42.4062 156.465 41.9C156.465 41.3844 156.457 40.9428 156.755 40.5687C157.044 40.1937 157.806 39.9678 157.806 39.875V43.9812C157.806 43.775 156.986 43.5031 156.738 43.1656ZM161.878 46.3906C161.737 45.9875 161.539 45.6406 161.282 45.35C161.026 45.0594 160.695 44.8063 160.289 44.6094C160.148 44.5447 159.739 44.45 159.399 44.3469C159.225 44.2906 159.461 44.2344 158.634 44.1687V39.8937C159.461 39.9969 159.573 40.1938 159.813 40.5125C160.061 40.8219 160.304 41.2625 160.386 41.8438L161.687 41.6375L161.799 41.6188L161.793 41.5334C161.67 40.6344 161.165 39.9219 160.611 39.3969C160.164 38.975 159.461 38.7219 158.634 38.6375V38H157.806V38.6375C156.978 38.7406 156.482 39.0125 156.043 39.4531C155.381 40.1 155.149 40.9531 155.149 42.0125C155.149 42.6031 155.315 43.1384 155.538 43.6062C155.77 44.0656 155.91 44.4313 156.333 44.6937C156.896 45.0594 157.806 45.2937 157.806 45.4062V50.1313C157.806 50.0656 157.053 49.775 156.68 49.25C156.515 49.0063 156.482 48.6687 156.374 48.2375C156.324 48.0125 156.333 47.7594 156.291 47.4875L155 47.7688C155.041 48.4438 155.195 49.0344 155.443 49.5312L155.54 49.7281C155.838 50.2531 155.998 50.6469 156.405 50.8813C156.818 51.125 157.806 51.2844 157.806 51.3781V53H158.634V51.3594C160.289 51.3125 160.467 50.9469 161.046 50.2625C161.626 49.5687 162 48.7156 162 47.6844C162 47.225 162.011 46.7844 161.878 46.3906Z" fill="#A78934"/>
<path fill-rule="evenodd" clip-rule="evenodd" d="M159.409 58C156.18 58 153.23 56.7728 151 54.7605L152.799 52.7572L152.805 52.7509C154.557 54.3309 156.874 55.2929 159.409 55.2929C164.864 55.2929 169.302 50.8396 169.302 45.3667C169.302 42.4511 168.043 39.8261 166.042 38.0078L166.046 38.0033L167.845 36C170.4 38.3011 172 41.6489 172 45.3667C172 52.3421 166.361 58 159.409 58Z" fill="#E0B22D"/>
<path fill-rule="evenodd" clip-rule="evenodd" d="M158.805 56C156.193 56 153.805 54.9983 152 53.3529L155.238 49.7134L155.342 49.9013C155.676 50.4276 155.854 50.8222 156.31 51.0572C156.772 51.3015 157.879 51.4612 157.879 51.5552V53.1809H158.805V51.5364C160.659 51.4894 160.858 51.1229 161.507 50.437C162.156 49.7416 162.575 48.8865 162.575 47.8528C162.575 47.3923 162.587 46.9507 162.438 46.556C162.281 46.1519 162.058 45.8042 161.771 45.5129C161.485 45.2216 161.113 44.9679 160.659 44.7706C160.523 44.7142 160.158 44.6352 159.816 44.5478L159.853 44.5074L162.272 41.7917L162.278 41.7842L162.349 41.7729L162.344 41.7015L162.355 41.6874L165.64 38C167.703 39.8935 169 42.6271 169 45.6633C169 51.3626 164.426 56 158.805 56ZM158.805 50.3054V45.776C159.732 46.0392 160.311 46.3305 160.57 46.6594C160.84 46.9883 160.969 47.4205 160.969 47.9561C160.969 48.5857 160.784 49.1214 160.412 49.5536C160.043 49.9765 159.732 50.2302 158.805 50.3054ZM157.879 50.3054C157.879 50.2396 157.035 49.9483 156.618 49.4221C156.448 49.1966 156.402 48.8912 156.301 48.5049L156.387 48.4072L157.879 46.7355V50.3054Z" fill="#E3C762"/>
<path fill-rule="evenodd" clip-rule="evenodd" d="M158.404 54H157.519V52.3006C157.519 52.2024 156.463 52.0354 156.022 51.78C155.588 51.5344 155.417 51.1218 155.099 50.5717L155 50.3752L155.008 50.3654L156.014 49.112C156.111 49.5157 156.154 49.835 156.317 50.0707C156.715 50.6208 157.519 50.9253 157.519 50.9941V47.2623L157.944 46.7407L159.368 44.9754C159.695 45.0668 160.042 45.1493 160.172 45.2083C160.605 45.4145 160.96 45.6798 161.233 45.9843C161.507 46.2888 161.719 46.6523 161.87 47.0747C162.011 47.4872 162 47.9489 162 48.4303C162 49.5108 161.6 50.4047 160.981 51.1316C160.362 51.8487 160.172 52.2318 158.404 52.2809V54ZM158.404 46.2593V50.9941C159.288 50.9155 159.584 50.6503 159.937 50.2083C160.291 49.7564 160.468 49.1965 160.468 48.5383C160.468 47.9784 160.344 47.5265 160.087 47.1827C159.84 46.8389 159.288 46.5344 158.404 46.2593ZM161.717 42.0864L161.78 42L161.785 42.0747L161.717 42.0864Z" fill="#9A8033"/>
<path fill-rule="evenodd" clip-rule="evenodd" d="M109 175.5C109 182.402 103.402 188 96.5 188C93.2946 188 90.3661 186.786 88.1518 184.795C85.5982 182.509 84 179.188 84 175.5C84 168.598 89.5973 163 96.5 163C99.7143 163 102.661 164.223 104.875 166.232C107.412 168.509 109 171.821 109 175.5Z" fill="#F7C125"/>
<path fill-rule="evenodd" clip-rule="evenodd" d="M96 186C90.4864 186 86 181.515 86 176C86 170.485 90.4864 166 96 166C101.514 166 106 170.485 106 176C106 181.515 101.514 186 96 186Z" fill="#FBDA68"/>
<path fill-rule="evenodd" clip-rule="evenodd" d="M97.0688 181.381C96.7385 181.803 96.4613 182.056 95.6336 182.131V177.613C96.4613 177.875 96.9786 178.166 97.2095 178.494C97.4504 178.822 97.5662 179.253 97.5662 179.788C97.5662 180.416 97.4007 180.95 97.0688 181.381ZM93.7382 175.166C93.4898 174.828 93.465 174.406 93.465 173.9C93.465 173.384 93.4567 172.944 93.7555 172.569C94.0444 172.194 94.8059 171.969 94.8059 171.875V175.981C94.8059 175.775 93.9865 175.503 93.7382 175.166ZM98.8781 178.391C98.7374 177.987 98.5388 177.641 98.2822 177.35C98.0264 177.059 97.6945 176.806 97.289 176.609C97.1482 176.544 96.7385 176.45 96.3992 176.347C96.2254 176.291 96.4613 176.234 95.6336 176.169V171.893C96.4613 171.997 96.573 172.194 96.813 172.513C97.0605 172.822 97.3038 173.263 97.3858 173.843L98.6869 173.638L98.7987 173.619L98.7929 173.534C98.6695 172.634 98.1655 171.922 97.6109 171.397C97.164 170.975 96.4613 170.721 95.6336 170.637V170H94.8059V170.637C93.9782 170.741 93.4816 171.013 93.0429 171.453C92.3807 172.1 92.149 172.954 92.149 174.012C92.149 174.603 92.3145 175.137 92.538 175.606C92.7698 176.066 92.9105 176.431 93.3334 176.694C93.8954 177.059 94.8059 177.294 94.8059 177.406V182.131C94.8059 182.066 94.0527 181.775 93.6802 181.25C93.5147 181.006 93.4816 180.669 93.3731 180.238C93.3243 180.012 93.3326 179.759 93.2912 179.488L92 179.769C92.0414 180.444 92.1945 181.034 92.442 181.531L92.5405 181.728C92.8385 182.253 92.9982 182.647 93.4046 182.881C93.8184 183.125 94.8059 183.284 94.8059 183.378V185H95.6336V183.359C97.289 183.312 97.4669 182.947 98.0463 182.262C98.6257 181.569 98.9998 180.716 98.9998 179.684C98.9998 179.225 99.0105 178.784 98.8781 178.391Z" fill="#A78934"/>
<path fill-rule="evenodd" clip-rule="evenodd" d="M96.409 189C93.1803 189 90.2304 187.773 88 185.76L89.7987 183.757L89.805 183.751C91.557 185.331 93.8737 186.293 96.409 186.293C101.864 186.293 106.302 181.841 106.302 176.367C106.302 173.451 105.043 170.825 103.042 169.008L103.046 169.003L104.845 167C107.4 169.301 109 172.649 109 176.367C109 183.342 103.361 189 96.409 189Z" fill="#E0B22D"/>
<path fill-rule="evenodd" clip-rule="evenodd" d="M95.8054 187C93.1928 187 90.8054 185.998 89 184.353L92.2373 180.713L92.342 180.901C92.6756 181.428 92.8545 181.822 93.3095 182.057C93.7729 182.301 94.8786 182.461 94.8786 182.555V184.181H95.8054V182.536C97.6589 182.489 97.8582 182.123 98.507 181.437C99.1557 180.742 99.5746 179.886 99.5746 178.853C99.5746 178.392 99.5867 177.951 99.4384 177.556C99.2808 177.151 99.0584 176.804 98.7711 176.513C98.4847 176.222 98.1131 175.968 97.6589 175.771C97.5227 175.714 97.1585 175.635 96.8165 175.548L96.8526 175.507L99.2715 172.792L99.278 172.784L99.3494 172.773L99.3438 172.701L99.355 172.688L102.64 169C104.703 170.893 106 173.627 106 176.663C106 182.364 101.426 187 95.8054 187ZM95.8054 181.305V176.776C96.7322 177.039 97.3114 177.33 97.57 177.659C97.8397 177.988 97.9694 178.421 97.9694 178.956C97.9694 179.586 97.7841 180.121 97.4124 180.554C97.0426 180.977 96.7322 181.23 95.8054 181.305ZM94.8786 181.305C94.8786 181.24 94.0352 180.948 93.6182 180.422C93.4476 180.197 93.4022 179.89 93.3012 179.505L93.3865 179.407L94.8786 177.735V181.305Z" fill="#E3C762"/>
<path fill-rule="evenodd" clip-rule="evenodd" d="M96.404 185H95.5198V183.301C95.5198 183.202 94.465 183.035 94.023 182.78C93.5888 182.534 93.4182 182.122 93.0999 181.572L93 181.375L93.0088 181.365L94.015 180.112C94.1114 180.515 94.1547 180.835 94.3174 181.071C94.7152 181.621 95.5198 181.925 95.5198 181.994V178.262L95.9442 177.741L97.3686 175.975C97.6948 176.067 98.0423 176.149 98.1722 176.208C98.6055 176.415 98.96 176.68 99.2332 176.984C99.5073 177.289 99.7195 177.651 99.8698 178.075C100.011 178.487 99.9998 178.949 99.9998 179.43C99.9998 180.511 99.6001 181.405 98.9812 182.132C98.3623 182.849 98.1722 183.232 96.404 183.281V185ZM96.404 177.259V181.994C97.2881 181.916 97.5843 181.65 97.9371 181.208C98.2916 180.756 98.4684 180.196 98.4684 179.538C98.4684 178.978 98.3447 178.527 98.0874 178.183C97.8407 177.839 97.2881 177.534 96.404 177.259ZM99.7168 173.086L99.7796 173L99.7849 173.075L99.7168 173.086Z" fill="#9A8033"/>
<path fill-rule="evenodd" clip-rule="evenodd" d="M469 67.5C469 74.4018 463.402 80 456.5 80C453.295 80 450.366 78.7857 448.152 76.7946C445.598 74.5089 444 71.1875 444 67.5C444 60.5982 449.598 55 456.5 55C459.714 55 462.661 56.2232 464.875 58.2321C467.411 60.5089 469 63.8214 469 67.5Z" fill="#F7C125"/>
<path fill-rule="evenodd" clip-rule="evenodd" d="M457 78C451.482 78 447 73.5136 447 68C447 62.4855 451.482 58 457 58C462.518 58 467 62.4855 467 68C467 73.5136 462.518 78 457 78Z" fill="#FBDA68"/>
<path fill-rule="evenodd" clip-rule="evenodd" d="M459.064 71.3813C458.741 71.8031 458.46 72.0563 457.632 72.1313V67.6125C458.46 67.875 458.981 68.1656 459.204 68.4928C459.453 68.8219 459.56 69.2531 459.56 69.7875C459.56 70.4156 459.395 70.95 459.064 71.3813ZM455.738 65.1656C455.489 64.8281 455.465 64.4062 455.465 63.9C455.465 63.3844 455.456 62.9437 455.754 62.5687C456.044 62.1937 456.805 61.9688 456.805 61.875V65.9812C456.805 65.775 455.986 65.5031 455.738 65.1656ZM460.876 68.3906C460.735 67.9875 460.537 67.6406 460.28 67.35C460.024 67.0594 459.693 66.8063 459.287 66.6094C459.146 66.5437 458.741 66.45 458.394 66.3459C458.22 66.2906 458.46 66.2353 457.632 66.1687V61.8928C458.46 61.9969 458.567 62.1938 458.807 62.5125C459.055 62.8219 459.304 63.2625 459.386 63.8428L460.685 63.6375L460.793 63.6188V63.5344C460.669 62.6344 460.164 61.9219 459.61 61.3969C459.163 60.975 458.46 60.7209 457.632 60.6375V60H456.805V60.6375C455.978 60.7406 455.481 61.0125 455.043 61.4531C454.381 62.1 454.149 62.9531 454.149 64.0125C454.149 64.6031 454.314 65.1375 454.538 65.6072C454.769 66.0656 454.91 66.4313 455.332 66.6937C455.895 67.0594 456.805 67.2937 456.805 67.4072V72.1313C456.805 72.0656 456.052 71.775 455.68 71.25C455.514 71.0063 455.481 70.6687 455.374 70.2375C455.324 70.0125 455.332 69.7594 455.291 69.4875L454 69.7688C454.041 70.4428 454.19 71.0334 454.439 71.5312L454.538 71.7281C454.836 72.2531 455.001 72.6469 455.407 72.8813C455.82 73.125 456.805 73.2844 456.805 73.3772V75H457.632V73.3594C459.287 73.3125 459.461 72.9469 460.04 72.2625C460.628 71.5687 461 70.7156 461 69.6844C461 69.225 461.008 68.7844 460.876 68.3906Z" fill="#A78934"/>
<path fill-rule="evenodd" clip-rule="evenodd" d="M456.409 80C453.18 80 450.23 78.7728 448 76.7605L449.799 74.7581L449.808 74.7509C451.561 76.3309 453.873 77.2929 456.409 77.2929C461.868 77.2929 466.302 72.8396 466.302 67.3667C466.302 64.4511 465.043 61.8261 463.046 60.0078V60.0033L464.845 58C467.399 60.3011 469 63.6489 469 67.3667C469 74.3421 463.361 80 456.409 80Z" fill="#E0B22D"/>
<path fill-rule="evenodd" clip-rule="evenodd" d="M457.804 78C455.19 78 452.808 76.9983 451 75.3529L454.235 71.7134L454.337 71.9013C454.671 72.4276 454.856 72.8222 455.31 73.0572C455.774 73.3015 456.877 73.4612 456.877 73.5543V75.1809H457.804V73.5364C459.658 73.4894 459.852 73.1229 460.501 72.437C461.159 71.7416 461.576 70.8865 461.576 69.8528C461.576 69.3923 461.586 68.9507 461.437 68.556C461.28 68.1519 461.057 67.8042 460.77 67.5129C460.483 67.2216 460.112 66.9679 459.658 66.7706C459.519 66.7142 459.157 66.6352 458.814 66.5478L458.851 66.5065L461.27 63.7917L461.28 63.7842L461.345 63.7729V63.7015L461.354 63.6883L464.644 60C466.702 61.8935 468 64.6271 468 67.6633C468 73.3626 463.43 78 457.804 78ZM457.804 72.3054V67.776C458.731 68.0392 459.315 68.3305 459.565 68.6584C459.843 68.9883 459.963 69.4205 459.963 69.9561C459.963 70.5857 459.778 71.1214 459.407 71.5536C459.046 71.9765 458.731 72.2302 457.804 72.3054ZM456.877 72.3054C456.877 72.2396 456.033 71.9483 455.616 71.4221C455.449 71.1966 455.403 70.8902 455.301 70.5049L455.384 70.4072L456.877 68.7355V72.3054Z" fill="#E3C762"/>
<path fill-rule="evenodd" clip-rule="evenodd" d="M457.403 77H456.519V75.2996C456.519 75.2024 455.467 75.0354 455.025 74.78C454.592 74.5344 454.415 74.1218 454.097 73.5717L454 73.3752L454.009 73.3654L455.016 72.112C455.114 72.5147 455.158 72.835 455.317 73.0707C455.715 73.6208 456.519 73.9253 456.519 73.9941V70.2623L456.943 69.7407L458.366 67.9754C458.693 68.0668 459.038 68.1493 459.17 68.2083C459.603 68.4145 459.957 68.6798 460.231 68.9843C460.505 69.2888 460.717 69.6523 460.867 70.0747C461.009 70.4872 461 70.9489 461 71.4303C461 72.5108 460.602 73.4047 459.975 74.1316C459.356 74.8487 459.17 75.2318 457.403 75.2809V77ZM457.403 69.2593V73.9941C458.287 73.9155 458.587 73.6503 458.932 73.2083C459.285 72.7564 459.462 72.1965 459.462 71.5383C459.462 70.9784 459.347 70.5265 459.082 70.1817C458.843 69.8389 458.287 69.5344 457.403 69.2593ZM460.717 65.0864L460.779 65V65.0747L460.717 65.0864Z" fill="#9A8033"/>
</svg>
